# Blender 4.4.0
# www.blender.org
mtllib arch01.mtl
o Arch_01
v -0.125000 -0.125000 0.625000
v -0.125000 0.125000 0.625000
v -0.125000 -0.125000 0.375000
v -0.125000 0.125000 0.375000
v 0.125000 -0.125000 0.625000
v 0.125000 0.125000 0.625000
v 0.125000 -0.125000 0.375000
v 0.125000 0.125000 0.375000
v -0.125000 0.375000 0.625000
v -0.125000 0.375000 0.375000
v 0.125000 0.375000 0.375000
v 0.125000 0.375000 0.625000
v -0.125000 0.625000 0.625000
v -0.125000 0.625000 0.375000
v 0.125000 0.625000 0.375000
v 0.125000 0.625000 0.625000
v -0.125000 -0.375000 0.375000
v -0.125000 -0.375000 0.625000
v 0.125000 -0.375000 0.375000
v 0.125000 -0.375000 0.625000
v -0.125000 -0.625000 0.375000
v -0.125000 -0.625000 0.625000
v 0.125000 -0.625000 0.375000
v 0.125000 -0.625000 0.625000
v -0.125000 0.375000 0.125000
v 0.125000 0.375000 0.125000
v -0.125000 0.625000 0.125000
v 0.125000 0.625000 0.125000
v -0.125000 0.375000 -0.125000
v 0.125000 0.375000 -0.125000
v -0.125000 0.625000 -0.125000
v 0.125000 0.625000 -0.125000
v -0.125000 0.375000 -0.375000
v 0.125000 0.375000 -0.375000
v -0.125000 0.625000 -0.375000
v 0.125000 0.625000 -0.375000
v -0.125000 0.375000 -0.625000
v 0.125000 0.375000 -0.625000
v -0.125000 0.625000 -0.625000
v 0.125000 0.625000 -0.625000
v -0.125000 0.125000 -0.375000
v 0.125000 0.125000 -0.375000
v -0.125000 0.125000 -0.625000
v 0.125000 0.125000 -0.625000
v -0.125000 -0.125000 -0.375000
v 0.125000 -0.125000 -0.375000
v -0.125000 -0.125000 -0.625000
v 0.125000 -0.125000 -0.625000
v -0.125000 -0.375000 -0.375000
v 0.125000 -0.375000 -0.375000
v -0.125000 -0.375000 -0.625000
v 0.125000 -0.375000 -0.625000
v -0.125000 -0.625000 -0.375000
v 0.125000 -0.625000 -0.375000
v -0.125000 -0.625000 -0.625000
v 0.125000 -0.625000 -0.625000
vn -1.0000 -0.0000 -0.0000
vn -0.0000 -0.0000 -1.0000
vn 1.0000 -0.0000 -0.0000
vn -0.0000 -0.0000 1.0000
vn -0.0000 1.0000 -0.0000
vn -0.0000 -1.0000 -0.0000
vt 0.200000 0.500000
vt 0.300000 0.400000
vt 0.300000 0.500000
vt 0.600000 0.600000
vt 0.700000 0.700000
vt 0.600000 0.700000
vt 0.200000 0.600000
vt 0.300000 0.500000
vt 0.300000 0.600000
vt 0.500000 0.200000
vt 0.600000 0.300000
vt 0.500000 0.300000
vt 0.400000 0.600000
vt 0.700000 0.500000
vt 0.700000 0.600000
vt 0.100000 0.600000
vt 0.000000 0.500000
vt 0.100000 0.500000
vt 0.200000 0.500000
vt 0.100000 0.400000
vt 0.200000 0.400000
vt 0.600000 0.100000
vt 0.600000 0.200000
vt 0.500000 0.600000
vt 0.600000 0.500000
vt 0.100000 0.500000
vt -0.000000 0.400000
vt 0.500000 0.100000
vt 0.600000 0.000000
vt 0.100000 0.300000
vt 0.600000 0.400000
vt 0.500000 0.500000
vt 0.500000 0.400000
vt 0.600000 0.800000
vt 0.400000 0.500000
vt 0.800000 0.800000
vt 0.800000 0.700000
vt 0.700000 0.800000
vt 0.600000 0.900000
vt 0.400000 0.400000
vt 0.500000 0.500000
vt 0.000000 0.300000
vt 0.100000 0.200000
vt 0.500000 0.700000
vt 0.800000 0.400000
vt 0.700000 0.400000
vt -0.000000 0.700000
vt 0.000000 0.600000
vt 0.500000 0.900000
vt 0.500000 0.800000
vt 0.100000 0.700000
vt -0.000000 0.800000
vt 0.800000 0.500000
vt 0.000000 0.100000
vt 0.100000 0.000000
vt 0.100000 0.100000
vt 0.100000 0.800000
vt -0.000000 0.900000
vt 0.800000 0.600000
vt 0.000000 0.200000
vt 0.700000 0.000000
vt 0.700000 0.100000
vt 0.500000 1.000000
vt 0.100000 0.900000
vt -0.000000 1.000000
vt 0.200000 0.900000
vt 0.300000 1.000000
vt 0.200000 1.000000
vt 0.100000 1.000000
vt 0.200000 0.100000
vt 0.800000 0.000000
vt 0.700000 0.300000
vt 0.700000 0.200000
vt 0.200000 0.000000
vt 0.300000 0.100000
vt 0.800000 0.100000
vt 0.400000 0.000000
vt 0.500000 0.100000
vt 0.400000 0.100000
vt 0.300000 0.000000
vt 0.800000 0.200000
vt 0.300000 0.900000
vt 0.400000 1.000000
vt 0.700000 0.800000
vt 0.800000 0.900000
vt 0.700000 0.900000
vt 0.800000 0.300000
vt 0.400000 0.900000
vt 0.500000 1.000000
vt -0.000000 0.500000
vt 0.500000 0.000000
vt 0.700000 0.900000
vt 0.500000 0.400000
vt 0.000000 0.000000
vt 0.800000 0.700000
vt 0.600000 1.000000
vt 0.500000 0.000000
vt 0.800000 0.800000
s 0
usemtl SolidObject
f 2/1/1 3/2/1 1/3/1
f 4/4/2 7/5/2 3/6/2
f 8/7/3 5/8/3 7/9/3
f 6/10/4 1/11/4 5/12/4
f 5/8/3 19/13/3 7/9/3
f 4/4/2 11/14/2 8/15/2
f 11/16/3 16/17/3 12/18/3
f 8/7/3 12/18/3 6/19/3
f 2/1/1 10/20/1 4/21/1
f 6/10/4 9/22/4 2/23/4
f 14/24/5 16/25/5 15/4/5
f 9/26/1 14/27/1 10/20/1
f 12/28/4 13/29/4 9/22/4
f 14/27/1 25/30/1 10/20/1
f 18/31/4 24/32/4 20/33/4
f 1/11/4 20/33/4 5/12/4
f 7/5/2 17/34/2 3/6/2
f 3/2/1 18/35/1 1/3/1
f 23/36/6 22/5/6 21/37/6
f 19/38/2 21/39/2 17/34/2
f 20/35/3 23/24/3 19/13/3
f 17/40/1 22/41/1 18/35/1
f 27/42/1 29/43/1 25/30/1
f 15/4/5 27/44/5 14/24/5
f 10/45/6 26/14/6 11/46/6
f 11/16/3 28/47/3 15/48/3
f 32/34/5 35/49/5 31/50/5
f 28/6/5 31/50/5 27/44/5
f 26/51/3 32/52/3 28/47/3
f 25/53/6 30/15/6 26/14/6
f 35/54/1 37/55/1 33/56/1
f 30/57/3 36/58/3 32/52/3
f 29/59/6 34/5/6 30/15/6
f 31/60/1 33/56/1 29/43/1
f 37/22/2 40/61/2 38/62/2
f 36/39/5 39/63/5 35/49/5
f 34/64/3 40/65/3 36/58/3
f 38/62/2 43/23/2 37/22/2
f 42/66/3 48/67/3 44/68/3
f 34/64/3 44/68/3 38/69/3
f 37/55/1 41/70/1 33/56/1
f 33/71/4 42/62/4 34/61/4
f 48/72/2 51/31/2 47/11/2
f 44/73/2 47/11/2 43/23/2
f 43/74/1 45/75/1 41/70/1
f 41/76/4 46/73/4 42/62/4
f 51/77/1 53/78/1 49/79/1
f 47/80/1 49/79/1 45/75/1
f 45/81/4 50/72/4 46/73/4
f 46/82/3 52/83/3 48/67/3
f 53/84/6 56/85/6 54/86/6
f 49/87/4 54/46/4 50/72/4
f 50/88/3 56/89/3 52/83/3
f 52/46/2 55/25/2 51/31/2
f 2/1/1 4/21/1 3/2/1
f 4/4/2 8/15/2 7/5/2
f 8/7/3 6/19/3 5/8/3
f 6/10/4 2/23/4 1/11/4
f 5/8/3 20/35/3 19/13/3
f 4/4/2 10/25/2 11/14/2
f 11/16/3 15/48/3 16/17/3
f 8/7/3 11/16/3 12/18/3
f 2/1/1 9/26/1 10/20/1
f 6/10/4 12/28/4 9/22/4
f 14/24/5 13/32/5 16/25/5
f 9/26/1 13/90/1 14/27/1
f 12/28/4 16/91/4 13/29/4
f 14/27/1 27/42/1 25/30/1
f 18/31/4 22/25/4 24/32/4
f 1/11/4 18/31/4 20/33/4
f 7/5/2 19/38/2 17/34/2
f 3/2/1 17/40/1 18/35/1
f 23/36/6 24/38/6 22/5/6
f 19/38/2 23/92/2 21/39/2
f 20/35/3 24/41/3 23/24/3
f 17/40/1 21/93/1 22/41/1
f 27/42/1 31/60/1 29/43/1
f 15/4/5 28/6/5 27/44/5
f 10/45/6 25/53/6 26/14/6
f 11/16/3 26/51/3 28/47/3
f 32/34/5 36/39/5 35/49/5
f 28/6/5 32/34/5 31/50/5
f 26/51/3 30/57/3 32/52/3
f 25/53/6 29/59/6 30/15/6
f 35/54/1 39/94/1 37/55/1
f 30/57/3 34/64/3 36/58/3
f 29/59/6 33/95/6 34/5/6
f 31/60/1 35/54/1 33/56/1
f 37/22/2 39/29/2 40/61/2
f 36/39/5 40/96/5 39/63/5
f 34/64/3 38/69/3 40/65/3
f 38/62/2 44/73/2 43/23/2
f 42/66/3 46/82/3 48/67/3
f 34/64/3 42/66/3 44/68/3
f 37/55/1 43/74/1 41/70/1
f 33/71/4 41/76/4 42/62/4
f 48/72/2 52/46/2 51/31/2
f 44/73/2 48/72/2 47/11/2
f 43/74/1 47/80/1 45/75/1
f 41/76/4 45/81/4 46/73/4
f 51/77/1 55/97/1 53/78/1
f 47/80/1 51/77/1 49/79/1
f 45/81/4 49/87/4 50/72/4
f 46/82/3 50/88/3 52/83/3
f 53/84/6 55/98/6 56/85/6
f 49/87/4 53/45/4 54/46/4
f 50/88/3 54/49/3 56/89/3
f 52/46/2 56/14/2 55/25/2
