# Blender 4.4.0
# www.blender.org
o PyramidCut
v -0.500000 -0.500000 0.500000
v -0.150000 0.500000 0.150000
v -0.500000 -0.500000 -0.500000
v -0.150000 0.500000 -0.150000
v 0.500000 -0.500000 0.500000
v 0.150000 0.500000 0.150000
v 0.500000 -0.500000 -0.500000
v 0.150000 0.500000 -0.150000
vn -0.9439 0.3304 -0.0000
vn -0.0000 0.3304 -0.9439
vn 0.9439 0.3304 -0.0000
vn -0.0000 0.3304 0.9439
vn -0.0000 -1.0000 -0.0000
vn -0.0000 1.0000 -0.0000
vt 0.116667 0.000000
vt 0.333333 0.353160
vt 0.000000 0.353160
vt 0.450000 0.000000
vt 0.666667 0.353160
vt 0.116667 0.353160
vt 0.333333 0.706321
vt 0.000000 0.706321
vt 0.450000 0.353160
vt 0.666667 0.706321
vt 1.000000 0.333333
vt 0.666667 0.000000
vt 1.000000 0.000000
vt 0.766667 0.433333
vt 0.666667 0.333333
vt 0.766667 0.333333
vt 0.216667 0.000000
vt 0.550000 0.000000
vt 0.216667 0.353160
vt 0.550000 0.353160
vt 0.666667 0.333333
vt 0.666667 0.433333
s 0
f 2/1/1 3/2/1 1/3/1
f 4/4/2 7/5/2 3/2/2
f 8/6/3 5/7/3 7/8/3
f 6/9/4 1/10/4 5/7/4
f 7/11/5 1/12/5 3/13/5
f 4/14/6 6/15/6 8/16/6
f 2/1/1 4/17/1 3/2/1
f 4/4/2 8/18/2 7/5/2
f 8/6/3 6/19/3 5/7/3
f 6/9/4 2/20/4 1/10/4
f 7/11/5 5/21/5 1/12/5
f 4/14/6 2/22/6 6/15/6
