# Blender 4.4.0
# www.blender.org
o Trampoline_01
v 0.540000 0.486000 -0.638800
v 0.540000 -0.486000 -0.638800
v 0.540000 -0.364500 0.916400
v 0.540000 -0.486000 0.916400
v -0.540000 0.486000 -0.638800
v -0.540000 -0.486000 -0.638800
v -0.540000 -0.364500 0.916400
v -0.540000 -0.486000 0.916400
v -0.540000 -0.486000 -0.055600
v 0.540000 0.000000 -0.055600
v -0.540000 0.000000 -0.055600
v 0.540000 -0.486000 -0.055600
v -0.540000 -0.486000 0.236000
v 0.540000 -0.243000 0.236000
v -0.540000 -0.243000 0.236000
v 0.540000 -0.486000 0.236000
v -0.540000 -0.486000 0.576200
v 0.540000 -0.364500 0.576200
v -0.540000 -0.364500 0.576200
v 0.540000 -0.486000 0.576200
v -0.540000 0.486000 -0.347200
v 0.540000 -0.486000 -0.347200
v -0.540000 -0.486000 -0.347200
v 0.540000 0.486000 -0.347200
vn -0.0000 0.9850 0.1724
vn -0.0000 1.0000 -0.0000
vn -0.0000 -0.0000 1.0000
vn -1.0000 -0.0000 -0.0000
vn -0.0000 -1.0000 -0.0000
vn 1.0000 -0.0000 -0.0000
vn -0.0000 -0.0000 -1.0000
vn -0.0000 0.5145 0.8575
vn -0.0000 0.6457 0.7636
vn -0.0000 0.8658 0.5005
vt 0.303713 0.875770
vt -0.001230 1.008613
vt -0.001230 0.875770
vt 0.876224 0.914831
vt 0.914342 0.609887
vt 0.914342 0.914831
vt 0.304944 0.114354
vt 0.609887 0.000000
vt 0.609887 0.114354
vt 0.609887 0.133413
vt 0.914831 0.000000
vt 0.914831 0.133413
vt 0.266826 0.133413
vt 0.304944 0.000000
vt 0.304944 0.133413
vt 0.304944 0.914831
vt 0.609887 0.609887
vt 0.609887 0.914831
vt 0.304944 0.495533
vt 0.152472 0.381180
vt 0.304944 0.381180
vt 0.609887 0.495533
vt 0.914831 0.381180
vt 0.914831 0.495533
vt 0.533651 0.343062
vt 0.609887 0.228708
vt 0.609887 0.343062
vt 0.062412 0.661419
vt 0.367355 0.508947
vt 0.367355 0.661419
vt 0.571769 0.476474
vt 0.609887 0.476475
vt 0.228708 0.266826
vt 0.304944 0.266826
vt 0.609887 0.381180
vt 0.914831 0.266826
vt 0.307404 0.627113
vt 0.002461 0.748020
vt 0.002461 0.627113
vt 0.571769 0.609887
vt 0.609887 0.609887
vt 0.609887 0.266826
vt 0.307404 0.751711
vt 0.002461 0.888074
vt 0.002461 0.751711
vt 0.762359 0.609887
vt 0.762359 0.914831
vt 0.609887 0.609887
vt 0.914831 0.609887
vt 0.000000 0.609887
vt 0.304944 0.609887
vt 0.457416 0.228708
vt 0.303713 1.008613
vt 0.876224 0.609887
vt 0.304944 -0.000000
vt 0.609887 0.000000
vt 0.266826 0.000000
vt 0.304944 0.609887
vt 0.000000 0.495533
vt 0.062412 0.508947
vt 0.307404 0.748020
vt 0.307404 0.888074
s 1
f 19/1/1 3/2/2 18/3/1
s 0
f 3/4/3 8/5/3 4/6/3
f 21/7/4 6/8/4 23/9/4
f 20/10/5 8/11/5 17/12/5
f 18/13/6 4/14/6 20/15/6
f 5/16/7 2/17/7 6/18/7
f 22/19/6 10/20/6 12/21/6
f 22/22/5 9/23/5 23/24/5
f 15/25/4 9/26/4 13/27/4
s 1
f 21/28/8 10/29/9 24/30/8
s 0
f 19/31/4 13/27/4 17/32/4
f 12/21/6 14/33/6 16/34/6
f 12/35/5 13/36/5 9/23/5
s 1
f 11/37/9 14/38/10 10/39/9
s 0
f 7/40/4 17/32/4 8/41/4
f 16/34/6 18/13/6 20/15/6
f 16/42/5 17/12/5 13/36/5
s 1
f 15/43/10 18/44/1 14/45/10
s 0
f 5/46/2 24/4/2 1/47/2
f 2/48/5 23/24/5 6/49/5
f 1/50/6 22/19/6 2/51/6
f 11/52/4 23/9/4 9/26/4
s 1
f 19/1/1 7/53/2 3/2/2
s 0
f 3/4/3 7/54/3 8/5/3
f 21/7/4 5/55/4 6/8/4
f 20/10/5 4/56/5 8/11/5
f 18/13/6 3/57/6 4/14/6
f 5/16/7 1/58/7 2/17/7
f 22/19/6 24/59/6 10/20/6
f 22/22/5 12/35/5 9/23/5
f 15/25/4 11/52/4 9/26/4
s 1
f 21/28/8 11/60/9 10/29/9
s 0
f 19/31/4 15/25/4 13/27/4
f 12/21/6 10/20/6 14/33/6
f 12/35/5 16/42/5 13/36/5
s 1
f 11/37/9 15/61/10 14/38/10
s 0
f 7/40/4 19/31/4 17/32/4
f 16/34/6 14/33/6 18/13/6
f 16/42/5 20/10/5 17/12/5
s 1
f 15/43/10 19/62/1 18/44/1
s 0
f 5/46/2 21/54/2 24/4/2
f 2/48/5 22/22/5 23/24/5
f 1/50/6 24/59/6 22/19/6
f 11/52/4 21/7/4 23/9/4
