# Blender 4.4.0
# www.blender.org
o Frame_01
v 0.515568 0.000000 -0.517536
v 0.412022 0.137445 -0.413990
v 0.308476 0.000000 -0.310444
v 0.412022 -0.137445 -0.413990
v -0.519894 0.000000 -0.517536
v -0.416348 0.137445 -0.413990
v -0.312801 0.000000 -0.310444
v -0.416348 -0.137445 -0.413990
v -0.519894 0.000000 0.517926
v -0.416348 0.137445 0.414380
v -0.312802 0.000000 0.310834
v -0.416348 -0.137445 0.414380
v 0.515568 0.000000 0.517926
v 0.412022 0.137445 0.414380
v 0.308476 0.000000 0.310834
v 0.412022 -0.137445 0.414380
vn -0.0000 0.6017 -0.7987
vn -0.0000 0.6017 0.7987
vn -0.0000 -0.6017 0.7987
vn -0.0000 -0.6017 -0.7987
vn -0.7987 0.6017 -0.0000
vn 0.7987 0.6017 -0.0000
vn 0.7987 -0.6017 -0.0000
vn -0.7987 -0.6017 -0.0000
vt 0.207215 0.554325
vt 0.303440 0.054325
vt 0.303440 0.498770
vt 0.880790 0.443214
vt 0.784565 0.054325
vt 0.880790 -0.001230
vt 0.784565 0.498770
vt 0.880790 0.887658
vt 0.784565 0.832103
vt 0.303440 0.498770
vt 0.399665 -0.001230
vt 0.399665 0.554325
vt 0.688340 -0.001230
vt 0.784565 0.498770
vt 0.688340 0.554325
vt 0.303440 0.998770
vt 0.207215 0.609881
vt 0.303440 0.554325
vt 0.399665 0.943214
vt 0.303440 0.554325
vt 0.399665 0.609881
vt 0.592115 0.054325
vt 0.592115 0.498770
vt 0.110990 0.554325
vt 0.014765 0.054325
vt 0.110990 -0.001230
vt 0.014765 0.554325
vt 0.110990 0.943214
vt 0.014765 0.998770
vt 0.110990 0.609881
vt 0.207215 0.998770
vt 0.110990 0.943214
vt 0.207215 0.498770
vt 0.110990 -0.001230
vt 0.207215 0.054325
vt 0.399665 -0.001230
vt 0.495890 0.498770
vt 0.399665 0.554325
vt 0.977015 -0.001230
vt 0.880790 0.387658
vt 0.880790 0.054325
vt 0.977015 0.832103
vt 0.880790 0.443214
vt 0.977015 0.498770
vt 0.592115 0.498770
vt 0.495890 -0.001230
vt 0.592115 0.054325
vt 0.207215 -0.001230
vt 0.784565 0.387658
vt 0.303440 0.054325
vt 0.784565 0.054325
vt 0.207215 0.943214
vt 0.303440 0.998770
vt 0.688340 -0.001230
vt 0.014765 0.498770
vt 0.110990 0.609881
vt 0.207215 0.554325
vt 0.110990 0.554325
vt 0.495890 0.054325
vt 0.977015 0.443214
vt 0.880790 0.887658
vt 0.495890 0.554325
s 0
f 1/1/1 6/2/1 2/3/1
f 6/4/2 3/5/2 2/6/2
f 7/7/3 4/8/3 3/9/3
f 4/10/4 5/11/4 1/12/4
f 9/13/5 6/14/5 5/15/5
f 10/16/6 7/17/6 6/18/6
f 11/19/7 8/20/7 7/21/7
f 12/22/8 5/15/8 8/23/8
f 13/24/2 10/25/2 9/26/2
f 14/27/1 11/28/1 10/29/1
f 15/30/4 12/31/4 11/32/4
f 16/33/3 9/34/3 12/35/3
f 1/36/6 14/37/6 13/38/6
f 14/39/5 3/40/5 15/41/5
f 3/42/8 16/43/8 15/44/8
f 4/45/7 13/46/7 16/47/7
f 1/1/1 5/48/1 6/2/1
f 6/4/2 7/49/2 3/5/2
f 7/7/3 8/4/3 4/8/3
f 4/10/4 8/50/4 5/11/4
f 9/13/5 10/51/5 6/14/5
f 10/16/6 11/52/6 7/17/6
f 11/19/7 12/53/7 8/20/7
f 12/22/8 9/54/8 5/15/8
f 13/24/2 14/55/2 10/25/2
f 14/27/1 15/56/1 11/28/1
f 15/30/4 16/57/4 12/31/4
f 16/33/3 13/58/3 9/34/3
f 1/36/6 2/59/6 14/37/6
f 14/39/5 2/60/5 3/40/5
f 3/42/8 4/61/8 16/43/8
f 4/45/7 1/62/7 13/46/7
