# Blender 4.4.0
# www.blender.org
mtllib wall01.mtl
o Wall_01
v -0.125000 -1.000000 0.500000
v -0.125000 1.000000 0.500000
v -0.125000 -1.000000 -0.500000
v -0.125000 1.000000 -0.500000
v 0.125000 -1.000000 0.500000
v 0.125000 1.000000 0.500000
v 0.125000 -1.000000 -0.500000
v 0.125000 1.000000 -0.500000
vn -1.0000 -0.0000 -0.0000
vn -0.0000 -0.0000 -1.0000
vn 1.0000 -0.0000 -0.0000
vn -0.0000 -0.0000 1.0000
vn -0.0000 -1.0000 -0.0000
vn -0.0000 1.0000 -0.0000
vt 0.000000 0.000000
vt 0.363636 0.727273
vt 0.000000 0.727273
vt 0.727273 0.000000
vt 0.818182 0.727273
vt 0.727273 0.727273
vt 0.363636 0.000000
vt 0.818182 0.000000
vt 0.909091 0.727273
vt 0.909091 0.363636
vt 1.000000 0.000000
vt 1.000000 0.363636
vt 1.000000 0.727273
vt 0.909091 0.000000
s 0
usemtl SolidObject
f 2/1/1 3/2/1 1/3/1
f 4/4/2 7/5/2 3/6/2
f 8/7/3 5/6/3 7/2/3
f 6/8/4 1/9/4 5/5/4
f 7/10/5 1/11/5 3/12/5
f 4/9/6 6/12/6 8/13/6
f 2/1/1 4/7/1 3/2/1
f 4/4/2 8/8/2 7/5/2
f 8/7/3 6/4/3 5/6/3
f 6/8/4 2/14/4 1/9/4
f 7/10/5 5/14/5 1/11/5
f 4/9/6 2/10/6 6/12/6
